<mxfile host="app.diagrams.net" modified="2024-06-16T18:00:25.416Z" agent="Mozilla/5.0 (X11; Linux x86_64) AppleWebKit/537.36 (KHTML, like Gecko) Chrome/124.0.0.0 Safari/537.36" etag="9PSl9b62IhNhIHLZLA52" version="24.5.4" type="device">
  <diagram name="Page-1" id="6eUjzHdCLsdrP0EhbOOj">
    <mxGraphModel dx="1090" dy="596" grid="1" gridSize="10" guides="1" tooltips="1" connect="1" arrows="0" fold="1" page="1" pageScale="1" pageWidth="850" pageHeight="1100" background="#ffffff" math="0" shadow="0">
      <root>
        <mxCell id="0" />
        <mxCell id="1" parent="0" />
        <mxCell id="ei2p1_0kyzRWIPlkyImw-81" value="" style="rounded=0;whiteSpace=wrap;html=1;fontFamily=Helvetica;fontSize=11;labelBackgroundColor=default;fillColor=#e1d5e7;strokeColor=#9673a6;" parent="1" vertex="1">
          <mxGeometry x="520.5" y="610" width="91" height="115" as="geometry" />
        </mxCell>
        <mxCell id="ei2p1_0kyzRWIPlkyImw-82" value="" style="rounded=0;whiteSpace=wrap;html=1;fontFamily=Helvetica;fontSize=11;labelBackgroundColor=default;fillColor=#e1d5e7;strokeColor=#9673a6;" parent="1" vertex="1">
          <mxGeometry x="520" y="490" width="90" height="110" as="geometry" />
        </mxCell>
        <mxCell id="ei2p1_0kyzRWIPlkyImw-83" value="" style="rounded=0;whiteSpace=wrap;html=1;fontFamily=Helvetica;fontSize=11;labelBackgroundColor=default;fillColor=#e1d5e7;strokeColor=#9673a6;" parent="1" vertex="1">
          <mxGeometry x="520" y="370" width="90" height="110" as="geometry" />
        </mxCell>
        <mxCell id="ei2p1_0kyzRWIPlkyImw-80" value="" style="rounded=0;whiteSpace=wrap;html=1;fontFamily=Helvetica;fontSize=11;labelBackgroundColor=default;fillColor=#e1d5e7;strokeColor=#9673a6;" parent="1" vertex="1">
          <mxGeometry x="521" y="250" width="90" height="110" as="geometry" />
        </mxCell>
        <mxCell id="ei2p1_0kyzRWIPlkyImw-1" value="" style="pointerEvents=1;shadow=0;dashed=0;html=1;strokeColor=none;fillColor=#4495D1;labelPosition=center;verticalLabelPosition=bottom;verticalAlign=top;align=center;outlineConnect=0;shape=mxgraph.veeam.cpu;" parent="1" vertex="1">
          <mxGeometry x="98.75" y="465" width="70" height="70" as="geometry" />
        </mxCell>
        <mxCell id="ei2p1_0kyzRWIPlkyImw-5" value="" style="sketch=0;pointerEvents=1;shadow=0;dashed=0;html=1;strokeColor=none;fillColor=#434445;aspect=fixed;labelPosition=center;verticalLabelPosition=bottom;verticalAlign=top;align=center;outlineConnect=0;shape=mxgraph.vvd.cpu;" parent="1" vertex="1">
          <mxGeometry x="530" y="290" width="70" height="70" as="geometry" />
        </mxCell>
        <mxCell id="rePg2zfAFBKbEzJOTFcd-7" style="edgeStyle=orthogonalEdgeStyle;rounded=0;orthogonalLoop=1;jettySize=auto;html=1;exitX=1;exitY=0.5;exitDx=0;exitDy=0;strokeColor=default;align=center;verticalAlign=middle;fontFamily=Helvetica;fontSize=11;fontColor=default;labelBackgroundColor=default;endArrow=none;endFill=0;" edge="1" parent="1" source="ei2p1_0kyzRWIPlkyImw-7" target="ei2p1_0kyzRWIPlkyImw-5">
          <mxGeometry relative="1" as="geometry">
            <Array as="points">
              <mxPoint x="480" y="500" />
              <mxPoint x="480" y="325" />
            </Array>
          </mxGeometry>
        </mxCell>
        <mxCell id="rePg2zfAFBKbEzJOTFcd-8" style="edgeStyle=orthogonalEdgeStyle;rounded=0;orthogonalLoop=1;jettySize=auto;html=1;exitX=1;exitY=0.5;exitDx=0;exitDy=0;strokeColor=default;align=center;verticalAlign=middle;fontFamily=Helvetica;fontSize=11;fontColor=default;labelBackgroundColor=default;endArrow=none;endFill=0;" edge="1" parent="1" source="ei2p1_0kyzRWIPlkyImw-7" target="ei2p1_0kyzRWIPlkyImw-48">
          <mxGeometry relative="1" as="geometry">
            <Array as="points">
              <mxPoint x="480" y="500" />
              <mxPoint x="480" y="445" />
            </Array>
          </mxGeometry>
        </mxCell>
        <mxCell id="rePg2zfAFBKbEzJOTFcd-9" style="edgeStyle=orthogonalEdgeStyle;rounded=0;orthogonalLoop=1;jettySize=auto;html=1;exitX=1;exitY=0.5;exitDx=0;exitDy=0;strokeColor=default;align=center;verticalAlign=middle;fontFamily=Helvetica;fontSize=11;fontColor=default;labelBackgroundColor=default;endArrow=none;endFill=0;" edge="1" parent="1" source="ei2p1_0kyzRWIPlkyImw-7" target="ei2p1_0kyzRWIPlkyImw-51">
          <mxGeometry relative="1" as="geometry">
            <Array as="points">
              <mxPoint x="480" y="500" />
              <mxPoint x="480" y="565" />
            </Array>
          </mxGeometry>
        </mxCell>
        <mxCell id="rePg2zfAFBKbEzJOTFcd-10" style="edgeStyle=orthogonalEdgeStyle;rounded=0;orthogonalLoop=1;jettySize=auto;html=1;exitX=1;exitY=0.5;exitDx=0;exitDy=0;strokeColor=default;align=center;verticalAlign=middle;fontFamily=Helvetica;fontSize=11;fontColor=default;labelBackgroundColor=default;endArrow=none;endFill=0;" edge="1" parent="1" source="ei2p1_0kyzRWIPlkyImw-7" target="ei2p1_0kyzRWIPlkyImw-54">
          <mxGeometry relative="1" as="geometry">
            <Array as="points">
              <mxPoint x="480" y="500" />
              <mxPoint x="480" y="690" />
            </Array>
          </mxGeometry>
        </mxCell>
        <mxCell id="rePg2zfAFBKbEzJOTFcd-17" style="edgeStyle=orthogonalEdgeStyle;rounded=0;orthogonalLoop=1;jettySize=auto;html=1;exitX=0;exitY=0.5;exitDx=0;exitDy=0;strokeColor=default;align=center;verticalAlign=middle;fontFamily=Helvetica;fontSize=11;fontColor=default;labelBackgroundColor=default;endArrow=none;endFill=0;" edge="1" parent="1" source="ei2p1_0kyzRWIPlkyImw-7" target="ei2p1_0kyzRWIPlkyImw-1">
          <mxGeometry relative="1" as="geometry" />
        </mxCell>
        <mxCell id="ei2p1_0kyzRWIPlkyImw-7" value="" style="rounded=0;whiteSpace=wrap;html=1;" parent="1" vertex="1">
          <mxGeometry x="310" y="275" width="110" height="450" as="geometry" />
        </mxCell>
        <mxCell id="ei2p1_0kyzRWIPlkyImw-39" style="edgeStyle=orthogonalEdgeStyle;rounded=0;orthogonalLoop=1;jettySize=auto;html=1;exitX=0;exitY=0.5;exitDx=0;exitDy=0;strokeColor=default;align=center;verticalAlign=middle;fontFamily=Helvetica;fontSize=11;fontColor=default;labelBackgroundColor=default;endArrow=none;endFill=0;" parent="1" source="ei2p1_0kyzRWIPlkyImw-8" target="ei2p1_0kyzRWIPlkyImw-1" edge="1">
          <mxGeometry relative="1" as="geometry">
            <Array as="points">
              <mxPoint x="200" y="205" />
              <mxPoint x="200" y="500" />
            </Array>
          </mxGeometry>
        </mxCell>
        <mxCell id="rePg2zfAFBKbEzJOTFcd-13" style="edgeStyle=orthogonalEdgeStyle;rounded=0;orthogonalLoop=1;jettySize=auto;html=1;exitX=1;exitY=0.5;exitDx=0;exitDy=0;strokeColor=default;align=center;verticalAlign=middle;fontFamily=Helvetica;fontSize=11;fontColor=default;labelBackgroundColor=default;endArrow=none;endFill=0;" edge="1" parent="1" source="ei2p1_0kyzRWIPlkyImw-8" target="ei2p1_0kyzRWIPlkyImw-5">
          <mxGeometry relative="1" as="geometry">
            <Array as="points">
              <mxPoint x="480" y="205" />
              <mxPoint x="480" y="325" />
            </Array>
          </mxGeometry>
        </mxCell>
        <mxCell id="ei2p1_0kyzRWIPlkyImw-8" value="" style="rounded=0;whiteSpace=wrap;html=1;" parent="1" vertex="1">
          <mxGeometry x="327.5" y="175" width="60" height="60" as="geometry" />
        </mxCell>
        <mxCell id="ei2p1_0kyzRWIPlkyImw-11" value="" style="rounded=0;whiteSpace=wrap;html=1;" parent="1" vertex="1">
          <mxGeometry x="550" y="255" width="30" height="30" as="geometry" />
        </mxCell>
        <mxCell id="ei2p1_0kyzRWIPlkyImw-28" style="edgeStyle=orthogonalEdgeStyle;rounded=0;orthogonalLoop=1;jettySize=auto;html=1;exitX=1;exitY=0.5;exitDx=0;exitDy=0;endArrow=none;endFill=0;" parent="1" source="ei2p1_0kyzRWIPlkyImw-12" target="ei2p1_0kyzRWIPlkyImw-1" edge="1">
          <mxGeometry relative="1" as="geometry" />
        </mxCell>
        <mxCell id="ei2p1_0kyzRWIPlkyImw-12" value="" style="rounded=0;whiteSpace=wrap;html=1;" parent="1" vertex="1">
          <mxGeometry x="48.75" y="415" width="50" height="40" as="geometry" />
        </mxCell>
        <mxCell id="ei2p1_0kyzRWIPlkyImw-40" style="edgeStyle=orthogonalEdgeStyle;rounded=0;orthogonalLoop=1;jettySize=auto;html=1;exitX=0.5;exitY=1;exitDx=0;exitDy=0;entryX=0.5;entryY=0.071;entryDx=0;entryDy=0;entryPerimeter=0;strokeColor=default;align=center;verticalAlign=middle;fontFamily=Helvetica;fontSize=11;fontColor=default;labelBackgroundColor=default;endArrow=none;endFill=0;" parent="1" source="ei2p1_0kyzRWIPlkyImw-11" target="ei2p1_0kyzRWIPlkyImw-5" edge="1">
          <mxGeometry relative="1" as="geometry" />
        </mxCell>
        <mxCell id="ei2p1_0kyzRWIPlkyImw-48" value="" style="sketch=0;pointerEvents=1;shadow=0;dashed=0;html=1;strokeColor=none;fillColor=#434445;aspect=fixed;labelPosition=center;verticalLabelPosition=bottom;verticalAlign=top;align=center;outlineConnect=0;shape=mxgraph.vvd.cpu;" parent="1" vertex="1">
          <mxGeometry x="531" y="410" width="70" height="70" as="geometry" />
        </mxCell>
        <mxCell id="ei2p1_0kyzRWIPlkyImw-49" value="" style="rounded=0;whiteSpace=wrap;html=1;" parent="1" vertex="1">
          <mxGeometry x="550" y="375" width="30" height="30" as="geometry" />
        </mxCell>
        <mxCell id="ei2p1_0kyzRWIPlkyImw-50" style="edgeStyle=orthogonalEdgeStyle;rounded=0;orthogonalLoop=1;jettySize=auto;html=1;exitX=0.5;exitY=1;exitDx=0;exitDy=0;entryX=0.5;entryY=0.071;entryDx=0;entryDy=0;entryPerimeter=0;strokeColor=default;align=center;verticalAlign=middle;fontFamily=Helvetica;fontSize=11;fontColor=default;labelBackgroundColor=default;endArrow=none;endFill=0;" parent="1" source="ei2p1_0kyzRWIPlkyImw-49" target="ei2p1_0kyzRWIPlkyImw-48" edge="1">
          <mxGeometry relative="1" as="geometry" />
        </mxCell>
        <mxCell id="ei2p1_0kyzRWIPlkyImw-51" value="" style="sketch=0;pointerEvents=1;shadow=0;dashed=0;html=1;strokeColor=none;fillColor=#434445;aspect=fixed;labelPosition=center;verticalLabelPosition=bottom;verticalAlign=top;align=center;outlineConnect=0;shape=mxgraph.vvd.cpu;" parent="1" vertex="1">
          <mxGeometry x="529" y="530" width="70" height="70" as="geometry" />
        </mxCell>
        <mxCell id="ei2p1_0kyzRWIPlkyImw-52" value="" style="rounded=0;whiteSpace=wrap;html=1;" parent="1" vertex="1">
          <mxGeometry x="548" y="490" width="30" height="30" as="geometry" />
        </mxCell>
        <mxCell id="ei2p1_0kyzRWIPlkyImw-53" style="edgeStyle=orthogonalEdgeStyle;rounded=0;orthogonalLoop=1;jettySize=auto;html=1;exitX=0.5;exitY=1;exitDx=0;exitDy=0;entryX=0.5;entryY=0.071;entryDx=0;entryDy=0;entryPerimeter=0;strokeColor=default;align=center;verticalAlign=middle;fontFamily=Helvetica;fontSize=11;fontColor=default;labelBackgroundColor=default;endArrow=none;endFill=0;" parent="1" source="ei2p1_0kyzRWIPlkyImw-52" target="ei2p1_0kyzRWIPlkyImw-51" edge="1">
          <mxGeometry relative="1" as="geometry" />
        </mxCell>
        <mxCell id="ei2p1_0kyzRWIPlkyImw-54" value="" style="sketch=0;pointerEvents=1;shadow=0;dashed=0;html=1;strokeColor=none;fillColor=#434445;aspect=fixed;labelPosition=center;verticalLabelPosition=bottom;verticalAlign=top;align=center;outlineConnect=0;shape=mxgraph.vvd.cpu;" parent="1" vertex="1">
          <mxGeometry x="530.51" y="655" width="70" height="70" as="geometry" />
        </mxCell>
        <mxCell id="ei2p1_0kyzRWIPlkyImw-55" value="" style="rounded=0;whiteSpace=wrap;html=1;" parent="1" vertex="1">
          <mxGeometry x="550.51" y="610" width="30" height="35" as="geometry" />
        </mxCell>
        <mxCell id="ei2p1_0kyzRWIPlkyImw-56" style="edgeStyle=orthogonalEdgeStyle;rounded=0;orthogonalLoop=1;jettySize=auto;html=1;exitX=0.5;exitY=1;exitDx=0;exitDy=0;entryX=0.5;entryY=0.071;entryDx=0;entryDy=0;entryPerimeter=0;strokeColor=default;align=center;verticalAlign=middle;fontFamily=Helvetica;fontSize=11;fontColor=default;labelBackgroundColor=default;endArrow=none;endFill=0;" parent="1" source="ei2p1_0kyzRWIPlkyImw-55" target="ei2p1_0kyzRWIPlkyImw-54" edge="1">
          <mxGeometry relative="1" as="geometry" />
        </mxCell>
        <mxCell id="ei2p1_0kyzRWIPlkyImw-75" value="Memória de Controle" style="text;strokeColor=none;align=center;fillColor=none;html=1;verticalAlign=middle;whiteSpace=wrap;rounded=0;fontFamily=Helvetica;fontSize=11;fontColor=default;labelBackgroundColor=default;" parent="1" vertex="1">
          <mxGeometry x="330" y="140" width="60" height="30" as="geometry" />
        </mxCell>
        <mxCell id="ei2p1_0kyzRWIPlkyImw-76" value="Memória Compartilhada" style="text;strokeColor=none;align=center;fillColor=none;html=1;verticalAlign=middle;whiteSpace=wrap;rounded=0;fontFamily=Helvetica;fontSize=11;fontColor=default;labelBackgroundColor=default;" parent="1" vertex="1">
          <mxGeometry x="327.5" y="240" width="60" height="30" as="geometry" />
        </mxCell>
        <mxCell id="ei2p1_0kyzRWIPlkyImw-84" value="&lt;font style=&quot;font-size: 7px; background-color: rgb(255, 255, 255);&quot;&gt;OCRAM de instruções&lt;/font&gt;" style="text;strokeColor=none;align=center;fillColor=none;html=1;verticalAlign=middle;whiteSpace=wrap;rounded=0;fontFamily=Helvetica;fontSize=11;fontColor=default;labelBackgroundColor=default;" parent="1" vertex="1">
          <mxGeometry x="522.5" y="235" width="85" height="20" as="geometry" />
        </mxCell>
        <mxCell id="ei2p1_0kyzRWIPlkyImw-85" value="&lt;font style=&quot;background-color: rgb(255, 255, 255); font-size: 9px;&quot;&gt;OCRAM de instruções&lt;/font&gt;" style="text;strokeColor=none;align=center;fillColor=none;html=1;verticalAlign=middle;whiteSpace=wrap;rounded=0;fontFamily=Helvetica;fontSize=11;fontColor=default;labelBackgroundColor=default;" parent="1" vertex="1">
          <mxGeometry x="30" y="370" width="87.5" height="25" as="geometry" />
        </mxCell>
        <mxCell id="ei2p1_0kyzRWIPlkyImw-87" value="flags de controle" style="text;strokeColor=none;align=center;fillColor=none;html=1;verticalAlign=middle;whiteSpace=wrap;rounded=0;fontFamily=Helvetica;fontSize=11;fontColor=default;labelBackgroundColor=default;" parent="1" vertex="1">
          <mxGeometry x="327.5" y="190" width="60" height="30" as="geometry" />
        </mxCell>
        <mxCell id="ei2p1_0kyzRWIPlkyImw-88" value="Hypervisor CPU" style="text;strokeColor=none;align=center;fillColor=none;html=1;verticalAlign=middle;whiteSpace=wrap;rounded=0;fontFamily=Helvetica;fontSize=11;fontColor=default;labelBackgroundColor=default;" parent="1" vertex="1">
          <mxGeometry x="103.75" y="540" width="60" height="30" as="geometry" />
        </mxCell>
        <mxCell id="ei2p1_0kyzRWIPlkyImw-89" value="Worker Tiles" style="text;strokeColor=none;align=center;fillColor=none;html=1;verticalAlign=middle;whiteSpace=wrap;rounded=0;fontFamily=Helvetica;fontSize=11;fontColor=default;labelBackgroundColor=default;" parent="1" vertex="1">
          <mxGeometry x="650" y="460" width="60" height="30" as="geometry" />
        </mxCell>
        <mxCell id="ei2p1_0kyzRWIPlkyImw-90" value=".rwdata" style="text;strokeColor=none;align=center;fillColor=none;html=1;verticalAlign=middle;whiteSpace=wrap;rounded=0;fontFamily=Helvetica;fontSize=11;fontColor=default;labelBackgroundColor=default;" parent="1" vertex="1">
          <mxGeometry x="327.5" y="390" width="60" height="30" as="geometry" />
        </mxCell>
        <mxCell id="ei2p1_0kyzRWIPlkyImw-91" value="" style="line;strokeWidth=1;html=1;fontFamily=Helvetica;fontSize=11;fontColor=default;labelBackgroundColor=default;" parent="1" vertex="1">
          <mxGeometry x="310" y="570" width="100" height="160" as="geometry" />
        </mxCell>
        <mxCell id="ei2p1_0kyzRWIPlkyImw-92" value=".bss" style="text;strokeColor=none;align=center;fillColor=none;html=1;verticalAlign=middle;whiteSpace=wrap;rounded=0;fontFamily=Helvetica;fontSize=11;fontColor=default;labelBackgroundColor=default;" parent="1" vertex="1">
          <mxGeometry x="327.5" y="675" width="60" height="30" as="geometry" />
        </mxCell>
        <mxCell id="ei2p1_0kyzRWIPlkyImw-93" value="Nios II + FPU" style="text;strokeColor=none;align=center;fillColor=none;html=1;verticalAlign=middle;whiteSpace=wrap;rounded=0;fontFamily=Helvetica;fontSize=11;fontColor=default;labelBackgroundColor=default;" parent="1" vertex="1">
          <mxGeometry x="545.13" y="320" width="39.75" height="12.5" as="geometry" />
        </mxCell>
        <mxCell id="rePg2zfAFBKbEzJOTFcd-18" value="&lt;font style=&quot;background-color: rgb(255, 255, 255); font-size: 9px;&quot;&gt;Nios II&amp;nbsp;&lt;/font&gt;&lt;div&gt;&lt;font style=&quot;background-color: rgb(255, 255, 255); font-size: 9px;&quot;&gt;+ FPU&lt;/font&gt;&lt;/div&gt;" style="text;strokeColor=none;align=center;fillColor=none;html=1;verticalAlign=middle;whiteSpace=wrap;rounded=0;fontFamily=Helvetica;fontSize=11;fontColor=default;labelBackgroundColor=default;" vertex="1" parent="1">
          <mxGeometry x="98.75" y="470" width="80" height="70" as="geometry" />
        </mxCell>
        <mxCell id="rePg2zfAFBKbEzJOTFcd-20" style="edgeStyle=orthogonalEdgeStyle;rounded=0;orthogonalLoop=1;jettySize=auto;html=1;exitX=0;exitY=0.5;exitDx=0;exitDy=0;strokeColor=default;align=center;verticalAlign=middle;fontFamily=Helvetica;fontSize=11;fontColor=default;labelBackgroundColor=default;endArrow=none;endFill=0;" edge="1" parent="1" source="rePg2zfAFBKbEzJOTFcd-19" target="ei2p1_0kyzRWIPlkyImw-5">
          <mxGeometry relative="1" as="geometry" />
        </mxCell>
        <mxCell id="rePg2zfAFBKbEzJOTFcd-21" style="edgeStyle=orthogonalEdgeStyle;rounded=0;orthogonalLoop=1;jettySize=auto;html=1;exitX=1;exitY=0.25;exitDx=0;exitDy=0;strokeColor=default;align=center;verticalAlign=middle;fontFamily=Helvetica;fontSize=11;fontColor=default;labelBackgroundColor=default;endArrow=none;endFill=0;" edge="1" parent="1" source="rePg2zfAFBKbEzJOTFcd-19">
          <mxGeometry relative="1" as="geometry">
            <mxPoint x="800" y="314" as="targetPoint" />
          </mxGeometry>
        </mxCell>
        <mxCell id="rePg2zfAFBKbEzJOTFcd-22" style="edgeStyle=orthogonalEdgeStyle;rounded=0;orthogonalLoop=1;jettySize=auto;html=1;exitX=1;exitY=0.5;exitDx=0;exitDy=0;strokeColor=default;align=center;verticalAlign=middle;fontFamily=Helvetica;fontSize=11;fontColor=default;labelBackgroundColor=default;endArrow=none;endFill=0;" edge="1" parent="1" source="rePg2zfAFBKbEzJOTFcd-19">
          <mxGeometry relative="1" as="geometry">
            <mxPoint x="800" y="325.25" as="targetPoint" />
          </mxGeometry>
        </mxCell>
        <mxCell id="rePg2zfAFBKbEzJOTFcd-23" style="edgeStyle=orthogonalEdgeStyle;rounded=0;orthogonalLoop=1;jettySize=auto;html=1;exitX=1;exitY=0.75;exitDx=0;exitDy=0;strokeColor=default;align=center;verticalAlign=middle;fontFamily=Helvetica;fontSize=11;fontColor=default;labelBackgroundColor=default;endArrow=none;endFill=0;" edge="1" parent="1" source="rePg2zfAFBKbEzJOTFcd-19">
          <mxGeometry relative="1" as="geometry">
            <mxPoint x="800" y="336.5" as="targetPoint" />
          </mxGeometry>
        </mxCell>
        <mxCell id="rePg2zfAFBKbEzJOTFcd-30" style="edgeStyle=orthogonalEdgeStyle;rounded=0;orthogonalLoop=1;jettySize=auto;html=1;exitX=0;exitY=0.5;exitDx=0;exitDy=0;entryX=0.5;entryY=0;entryDx=0;entryDy=0;strokeColor=default;align=center;verticalAlign=middle;fontFamily=Helvetica;fontSize=11;fontColor=default;labelBackgroundColor=default;endArrow=none;endFill=0;" edge="1" parent="1" source="rePg2zfAFBKbEzJOTFcd-19" target="rePg2zfAFBKbEzJOTFcd-18">
          <mxGeometry relative="1" as="geometry">
            <Array as="points">
              <mxPoint x="700" y="325" />
              <mxPoint x="700" y="130" />
              <mxPoint x="139" y="130" />
            </Array>
          </mxGeometry>
        </mxCell>
        <mxCell id="rePg2zfAFBKbEzJOTFcd-19" value="Jtag Uart&amp;nbsp;" style="rounded=0;whiteSpace=wrap;html=1;fontFamily=Helvetica;fontSize=11;fontColor=default;labelBackgroundColor=default;" vertex="1" parent="1">
          <mxGeometry x="710" y="302.5" width="70" height="45" as="geometry" />
        </mxCell>
        <mxCell id="rePg2zfAFBKbEzJOTFcd-24" value="exterior" style="text;html=1;align=center;verticalAlign=middle;resizable=0;points=[];autosize=1;strokeColor=none;fillColor=none;fontFamily=Helvetica;fontSize=11;fontColor=default;labelBackgroundColor=default;" vertex="1" parent="1">
          <mxGeometry x="800" y="310" width="60" height="30" as="geometry" />
        </mxCell>
        <mxCell id="rePg2zfAFBKbEzJOTFcd-25" value="cpu_0" style="text;html=1;align=center;verticalAlign=middle;resizable=0;points=[];autosize=1;strokeColor=none;fillColor=none;fontFamily=Helvetica;fontSize=11;fontColor=default;labelBackgroundColor=default;" vertex="1" parent="1">
          <mxGeometry x="611.5" y="250" width="50" height="30" as="geometry" />
        </mxCell>
        <mxCell id="rePg2zfAFBKbEzJOTFcd-26" value="cpu_1" style="text;html=1;align=center;verticalAlign=middle;resizable=0;points=[];autosize=1;strokeColor=none;fillColor=none;fontFamily=Helvetica;fontSize=11;fontColor=default;labelBackgroundColor=default;" vertex="1" parent="1">
          <mxGeometry x="611.5" y="370" width="50" height="30" as="geometry" />
        </mxCell>
        <mxCell id="rePg2zfAFBKbEzJOTFcd-27" value="cpu_2" style="text;html=1;align=center;verticalAlign=middle;resizable=0;points=[];autosize=1;strokeColor=none;fillColor=none;fontFamily=Helvetica;fontSize=11;fontColor=default;labelBackgroundColor=default;" vertex="1" parent="1">
          <mxGeometry x="611.5" y="490" width="50" height="30" as="geometry" />
        </mxCell>
        <mxCell id="rePg2zfAFBKbEzJOTFcd-28" value="cpu_3" style="text;html=1;align=center;verticalAlign=middle;resizable=0;points=[];autosize=1;strokeColor=none;fillColor=none;fontFamily=Helvetica;fontSize=11;fontColor=default;labelBackgroundColor=default;" vertex="1" parent="1">
          <mxGeometry x="611.5" y="610" width="50" height="30" as="geometry" />
        </mxCell>
      </root>
    </mxGraphModel>
  </diagram>
</mxfile>
